<svg xmlns="http://www.w3.org/2000/svg" width="107.208" height="40" viewBox="0 0 107.208 40" fill="none">
  <path d="M 102.966 37.816 C 102.966 36.577 103.911 35.632 105.087 35.632 C 106.264 35.632 107.208 36.577 107.208 37.816 C 107.208 39.056 106.264 40 105.087 40 C 103.911 40 102.966 39.056 102.966 37.816 Z M 106.71 37.955 L 106.71 37.68 C 106.71 36.789 106.011 36.089 105.087 36.089 C 104.163 36.089 103.464 36.789 103.464 37.68 L 103.464 37.955 C 103.464 38.846 104.163 39.546 105.087 39.546 C 106.011 39.546 106.71 38.846 106.71 37.955 Z M 104.769 38.942 L 104.229 38.942 L 104.229 36.726 L 105.236 36.726 C 105.733 36.726 105.988 37.023 105.988 37.425 C 105.988 37.776 105.829 37.998 105.584 38.094 L 106.082 38.942 L 105.489 38.942 L 105.074 38.18 L 104.766 38.18 L 104.766 38.942 L 104.769 38.942 Z M 105.173 37.776 C 105.342 37.776 105.438 37.703 105.438 37.544 L 105.438 37.384 C 105.438 37.225 105.342 37.152 105.173 37.152 L 104.769 37.152 L 104.769 37.778 L 105.173 37.778 L 105.173 37.776 Z M 0 37.112 L 19.44 37.112 L 19.44 39.889 L 0 39.889 L 0 37.112 Z M 0 34.587 L 19.44 34.587 L 19.44 31.81 L 0 31.81 L 0 34.587 Z M 5.554 29.286 L 13.885 29.286 L 13.885 26.508 L 5.554 26.508 L 5.554 29.286 Z M 5.554 23.984 L 13.885 23.984 L 13.885 21.207 L 5.554 21.207 L 5.554 23.984 Z M 5.554 18.682 L 13.885 18.682 L 13.885 15.905 L 5.554 15.905 L 5.554 18.682 Z M 13.885 10.603 L 5.554 10.603 L 5.554 13.38 L 13.885 13.38 L 13.885 10.603 Z M 0 8.079 L 19.44 8.079 L 19.44 5.302 L 0 5.302 L 0 8.079 Z M 0 2.777 L 19.44 2.777 L 19.44 0 L 0 0 L 0 2.777 Z M 22.217 34.587 L 51.848 34.587 C 52.345 33.729 52.724 32.797 52.966 31.81 L 22.219 31.81 L 22.219 34.587 L 22.217 34.587 Z M 49.528 21.207 L 27.771 21.207 L 27.771 23.984 L 51.845 23.984 C 51.235 22.931 50.452 21.992 49.528 21.207 Z M 27.771 15.905 L 27.771 18.682 L 49.528 18.682 C 50.449 17.897 51.235 16.958 51.845 15.905 L 27.771 15.905 Z M 51.848 5.302 L 22.217 5.302 L 22.217 8.079 L 52.964 8.079 C 52.722 7.092 52.343 6.16 51.845 5.302 L 51.848 5.302 Z M 42.666 0 L 22.217 0 L 22.217 2.777 L 49.818 2.777 C 47.932 1.053 45.423 0 42.666 0 Z M 27.771 13.38 L 36.102 13.38 L 36.102 10.603 L 27.771 10.603 L 27.771 13.38 Z M 43.928 13.38 L 52.898 13.38 C 53.138 12.494 53.269 11.565 53.269 10.603 L 43.928 10.603 L 43.928 13.38 Z M 27.771 29.286 L 36.102 29.286 L 36.102 26.508 L 27.771 26.508 L 27.771 29.286 Z M 43.928 26.508 L 43.928 29.286 L 53.269 29.286 C 53.269 28.324 53.138 27.395 52.898 26.508 L 43.928 26.508 Z M 22.217 39.889 L 42.666 39.889 C 45.443 39.889 47.932 38.836 49.818 37.112 L 22.217 37.112 L 22.217 39.889 Z M 77.758 39.889 L 78.723 37.112 L 76.791 37.112 L 77.756 39.889 L 77.758 39.889 Z M 75.908 34.587 L 79.611 34.587 L 80.586 31.81 L 74.933 31.81 L 75.908 34.587 Z M 74.044 29.286 L 81.469 29.286 L 82.444 26.508 L 73.067 26.508 L 74.042 29.286 L 74.044 29.286 Z M 72.184 23.984 L 83.332 23.984 L 84.307 21.207 L 71.209 21.207 L 72.184 23.984 Z M 61.096 13.38 L 76.099 13.38 L 75.133 10.603 L 61.093 10.603 L 61.093 13.38 L 61.096 13.38 Z M 81.26 8.079 L 99.975 8.079 L 99.975 5.302 L 82.227 5.302 L 81.26 8.079 Z M 84.07 0 L 83.105 2.777 L 99.975 2.777 L 99.975 0 L 84.07 0 Z M 55.542 39.889 L 69.427 39.889 L 69.427 37.112 L 55.542 37.112 L 55.542 39.889 Z M 55.542 34.587 L 69.427 34.587 L 69.427 31.81 L 55.542 31.81 L 55.542 34.587 Z M 61.096 29.286 L 69.427 29.286 L 69.427 26.508 L 61.096 26.508 L 61.096 29.286 Z M 61.096 23.984 L 69.427 23.984 L 69.427 21.207 L 61.096 21.207 L 61.096 23.984 Z M 94.421 10.603 L 80.384 10.603 L 79.417 13.38 L 94.421 13.38 L 94.421 10.603 Z M 86.089 18.682 L 94.421 18.682 L 94.421 15.905 L 78.538 15.905 L 77.758 18.149 L 76.978 15.905 L 61.096 15.905 L 61.096 18.682 L 69.427 18.682 L 69.427 16.13 L 70.323 18.682 L 85.193 18.682 L 86.089 16.13 L 86.089 18.682 Z M 94.421 21.207 L 86.089 21.207 L 86.089 23.984 L 94.421 23.984 L 94.421 21.207 Z M 86.089 29.286 L 94.421 29.286 L 94.421 26.508 L 86.089 26.508 L 86.089 29.286 Z M 86.089 34.587 L 99.975 34.587 L 99.975 31.81 L 86.089 31.81 L 86.089 34.587 Z M 86.089 39.889 L 99.975 39.889 L 99.975 37.112 L 86.089 37.112 L 86.089 39.889 Z M 74.257 8.079 L 73.29 5.302 L 55.542 5.302 L 55.542 8.079 L 74.257 8.079 Z M 72.414 2.777 L 71.447 0 L 55.542 0 L 55.542 2.777 L 72.414 2.777 Z" fill="currentColor" fill-rule="nonzero"/>
</svg>
