<svg xmlns="http://www.w3.org/2000/svg" width="42.569" height="15.883" viewBox="0 0 42.569 15.883" fill="none">
  <path d="M 41.759 15.001 C 41.825 15.001 41.864 14.974 41.864 14.907 L 41.864 14.846 C 41.864 14.785 41.825 14.752 41.759 14.752 L 41.598 14.752 L 41.598 15.001 L 41.759 15.001 Z M 41.598 15.467 L 41.381 15.467 L 41.381 14.585 L 41.781 14.585 C 41.981 14.585 42.08 14.702 42.08 14.863 C 42.08 15.001 42.019 15.09 41.92 15.129 L 42.119 15.467 L 41.881 15.467 L 41.714 15.162 L 41.592 15.162 L 41.592 15.467 L 41.598 15.467 Z M 42.369 15.074 L 42.369 14.963 C 42.369 14.607 42.092 14.33 41.725 14.33 C 41.359 14.33 41.082 14.607 41.082 14.963 L 41.082 15.074 C 41.082 15.429 41.359 15.706 41.725 15.706 C 42.092 15.706 42.369 15.429 42.369 15.074 Z M 40.882 15.018 C 40.882 14.524 41.259 14.153 41.725 14.153 C 42.191 14.153 42.569 14.53 42.569 15.018 C 42.569 15.506 42.191 15.883 41.725 15.883 C 41.259 15.883 40.882 15.506 40.882 15.018 Z M 28.754 1.104 L 28.372 0 L 22.058 0 L 22.058 1.104 L 28.754 1.104 Z M 29.481 3.212 L 29.098 2.108 L 22.053 2.108 L 22.053 3.212 L 29.481 3.212 Z M 34.18 15.839 L 39.695 15.839 L 39.695 14.735 L 34.18 14.735 L 34.18 15.839 Z M 34.18 13.736 L 39.695 13.736 L 39.695 12.632 L 34.18 12.632 L 34.18 13.736 Z M 34.18 11.634 L 37.487 11.634 L 37.487 10.53 L 34.18 10.53 L 34.18 11.634 Z M 37.492 8.422 L 34.186 8.422 L 34.186 9.526 L 37.492 9.526 L 37.492 8.422 Z M 34.18 7.423 L 37.487 7.423 L 37.487 6.319 L 31.179 6.319 L 30.868 7.212 L 30.558 6.319 L 24.25 6.319 L 24.25 7.423 L 27.556 7.423 L 27.556 6.408 L 27.911 7.423 L 33.814 7.423 L 34.169 6.408 L 34.169 7.423 L 34.18 7.423 Z M 37.492 4.216 L 31.917 4.216 L 31.534 5.32 L 37.492 5.32 L 37.492 4.216 Z M 24.261 9.526 L 27.567 9.526 L 27.567 8.422 L 24.261 8.422 L 24.261 9.526 Z M 24.261 11.634 L 27.567 11.634 L 27.567 10.53 L 24.261 10.53 L 24.261 11.634 Z M 22.053 13.736 L 27.567 13.736 L 27.567 12.632 L 22.053 12.632 L 22.053 13.736 Z M 22.053 15.839 L 27.567 15.839 L 27.567 14.735 L 22.053 14.735 L 22.053 15.839 Z M 33.381 0.006 L 32.999 1.11 L 39.695 1.11 L 39.695 0.006 L 33.381 0.006 Z M 32.266 3.212 L 39.695 3.212 L 39.695 2.108 L 32.649 2.108 L 32.266 3.212 Z M 24.261 5.315 L 30.219 5.315 L 29.836 4.211 L 24.261 4.211 L 24.261 5.315 Z M 28.66 9.526 L 33.087 9.526 L 33.476 8.422 L 28.277 8.422 L 28.666 9.526 L 28.66 9.526 Z M 29.398 11.634 L 32.344 11.634 L 32.732 10.53 L 29.01 10.53 L 29.398 11.634 Z M 30.141 13.736 L 31.612 13.736 L 32 12.632 L 29.753 12.632 L 30.141 13.736 Z M 30.874 15.839 L 31.257 14.735 L 30.491 14.735 L 30.874 15.839 Z M 8.821 15.839 L 16.938 15.839 C 18.042 15.839 19.029 15.423 19.778 14.735 L 8.821 14.735 L 8.821 15.839 Z M 17.442 10.53 L 17.442 11.634 L 21.148 11.634 C 21.148 11.251 21.098 10.885 20.999 10.53 L 17.437 10.53 L 17.442 10.53 Z M 11.029 11.634 L 14.336 11.634 L 14.336 10.53 L 11.029 10.53 L 11.029 11.634 Z M 17.442 5.315 L 21.004 5.315 C 21.098 4.965 21.154 4.594 21.154 4.211 L 17.448 4.211 L 17.448 5.315 L 17.442 5.315 Z M 11.029 5.315 L 14.336 5.315 L 14.336 4.211 L 11.029 4.211 L 11.029 5.315 Z M 16.943 0.006 L 8.827 0.006 L 8.827 1.11 L 19.784 1.11 C 19.035 0.427 18.036 0.006 16.943 0.006 Z M 20.588 2.108 L 8.827 2.108 L 8.827 3.212 L 21.032 3.212 C 20.938 2.818 20.788 2.452 20.588 2.108 Z M 11.029 6.319 L 11.029 7.423 L 19.667 7.423 C 20.033 7.112 20.344 6.741 20.588 6.319 L 11.029 6.319 Z M 19.667 8.422 L 11.029 8.422 L 11.029 9.526 L 20.588 9.526 C 20.344 9.11 20.033 8.732 19.667 8.422 Z M 8.821 13.736 L 20.583 13.736 C 20.782 13.398 20.932 13.026 21.026 12.632 L 8.821 12.632 L 8.821 13.736 Z M 0 1.104 L 7.717 1.104 L 7.717 0 L 0 0 L 0 1.104 Z M 0 3.212 L 7.717 3.212 L 7.717 2.108 L 0 2.108 L 0 3.212 Z M 5.515 4.216 L 2.208 4.216 L 2.208 5.32 L 5.515 5.32 L 5.515 4.216 Z M 2.208 7.423 L 5.515 7.423 L 5.515 6.319 L 2.208 6.319 L 2.208 7.423 Z M 2.208 9.526 L 5.515 9.526 L 5.515 8.422 L 2.208 8.422 L 2.208 9.526 Z M 2.208 11.634 L 5.515 11.634 L 5.515 10.53 L 2.208 10.53 L 2.208 11.634 Z M 0 13.736 L 7.717 13.736 L 7.717 12.632 L 0 12.632 L 0 13.736 Z M 0 14.741 L 7.717 14.741 L 7.717 15.845 L 0 15.845 L 0 14.741 Z" fill="currentColor" fill-rule="nonzero"/>
</svg>
