<svg xmlns="http://www.w3.org/2000/svg" width="12" height="11.995" viewBox="0 0 12 11.995" fill="none">
  <path d="M 5.872 7.273 C 5.945 7.142 6.136 7.146 6.203 7.28 C 6.476 7.824 6.804 8.339 7.181 8.817 L 7.242 8.896 C 7.247 8.902 7.25 8.91 7.254 8.917 C 7.663 9.239 7.923 9.71 7.923 10.238 C 7.923 11.209 7.049 11.995 5.973 11.995 C 4.896 11.995 4.023 11.208 4.023 10.238 C 4.023 9.69 4.303 9.2 4.74 8.878 C 4.744 8.872 4.748 8.865 4.753 8.859 L 4.795 8.811 C 5.206 8.337 5.568 7.822 5.872 7.273 Z M 10.243 4.068 C 11.213 4.068 12 4.942 12 6.019 C 12 7.095 11.213 7.968 10.243 7.968 C 9.697 7.968 9.21 7.691 8.888 7.258 C 8.878 7.252 8.867 7.246 8.858 7.238 L 8.81 7.196 C 8.336 6.785 7.821 6.423 7.272 6.119 C 7.141 6.046 7.145 5.856 7.279 5.788 C 7.823 5.515 8.338 5.187 8.816 4.811 L 8.895 4.749 C 8.905 4.741 8.917 4.736 8.928 4.73 C 9.25 4.326 9.718 4.068 10.243 4.068 Z M 1.757 4.027 C 2.303 4.027 2.79 4.304 3.112 4.737 C 3.122 4.743 3.133 4.749 3.142 4.757 L 3.19 4.799 C 3.664 5.21 4.179 5.572 4.728 5.876 C 4.859 5.949 4.855 6.139 4.721 6.207 C 4.177 6.48 3.662 6.808 3.184 7.185 L 3.105 7.246 C 3.095 7.254 3.083 7.259 3.072 7.265 C 2.75 7.669 2.282 7.927 1.757 7.927 C 0.787 7.927 0 7.053 0 5.977 C 0 4.9 0.787 4.027 1.757 4.027 Z M 6.027 0 C 7.104 0 7.977 0.787 7.977 1.757 C 7.977 2.306 7.697 2.795 7.26 3.117 C 7.256 3.123 7.252 3.13 7.247 3.136 L 7.205 3.185 C 6.794 3.658 6.432 4.174 6.128 4.722 C 6.055 4.853 5.864 4.849 5.797 4.715 C 5.524 4.171 5.196 3.656 4.819 3.178 L 4.758 3.1 C 4.753 3.093 4.75 3.085 4.746 3.078 C 4.337 2.756 4.077 2.285 4.077 1.757 C 4.077 0.787 4.951 0 6.027 0 Z" fill="currentColor" fill-rule="nonzero"/>
</svg>
