<svg xmlns="http://www.w3.org/2000/svg" width="13" height="14" viewBox="0 0 13 14" fill="none">
  <path d="M 11 1 C 11 0.448 10.552 0 10 0 C 9.448 0 9 0.448 9 1 C 9 1.552 9.448 2 10 2 C 10.552 2 11 1.552 11 1 Z" fill="currentColor" fill-rule="nonzero"/>
  <path d="M 4.5 7 C 4.401 7 4.304 6.971 4.222 6.916 C 4.14 6.861 4.076 6.783 4.038 6.691 C 4 6.6 3.99 6.499 4.01 6.402 C 4.029 6.306 4.077 6.216 4.147 6.147 L 7.647 2.647 C 7.693 2.599 7.748 2.561 7.809 2.534 C 7.87 2.508 7.935 2.494 8.002 2.494 C 8.068 2.493 8.134 2.506 8.195 2.531 C 8.257 2.556 8.313 2.593 8.36 2.64 C 8.407 2.687 8.444 2.743 8.469 2.805 C 8.494 2.866 8.507 2.932 8.506 2.998 C 8.506 3.065 8.492 3.13 8.466 3.191 C 8.439 3.252 8.401 3.307 8.354 3.353 L 4.854 6.853 C 4.807 6.9 4.752 6.937 4.691 6.962 C 4.631 6.987 4.566 7 4.5 7 Z" fill="currentColor" fill-rule="nonzero"/>
  <path d="M 10.854 11.146 C 10.204 10.537 9.377 10.15 8.494 10.042 C 8.593 9.96 8.69 9.874 8.782 9.781 C 9.39 9.127 9.796 8.311 9.949 7.431 C 10.103 6.552 9.999 5.646 9.649 4.824 L 8.711 5.173 C 9.266 6.663 9.028 8.122 8.075 9.074 C 7.709 9.425 7.27 9.689 6.788 9.845 C 6.306 10.001 5.796 10.046 5.294 9.977 C 4.203 9.85 3.187 9.359 2.409 8.584 C 0.922 7.099 0.371 4.47 1.918 2.924 C 2.872 1.971 4.332 1.734 5.823 2.288 L 6.172 1.351 C 4.331 0.666 2.43 0.998 1.21 2.217 C -0.761 4.186 -0.128 7.464 1.7 9.291 C 2.641 10.227 3.87 10.819 5.189 10.971 C 5.294 10.982 5.396 10.983 5.5 10.988 L 5.5 11 L 7.998 11 C 8.792 11.027 9.551 11.329 10.146 11.854 L 12.293 14 L 13 13.293 L 10.854 11.146 Z" fill="currentColor" fill-rule="nonzero"/>
</svg>
